<mxfile host="app.diagrams.net" agent="Mozilla/5.0 (Windows NT 10.0; Win64; x64) AppleWebKit/537.36 (KHTML, like Gecko) Chrome/132.0.0.0 Safari/537.36" version="26.0.11">
  <diagram name="Page-1" id="-iJloVWFTKeSqvXMnFEB">
    <mxGraphModel dx="988" dy="543" grid="1" gridSize="10" guides="1" tooltips="1" connect="1" arrows="1" fold="1" page="1" pageScale="1" pageWidth="850" pageHeight="1100" math="0" shadow="0">
      <root>
        <mxCell id="0" />
        <mxCell id="1" parent="0" />
        <mxCell id="JTMz5jNMzuzobVMtBskZ-24" value="" style="group" vertex="1" connectable="0" parent="1">
          <mxGeometry x="250" y="450" width="140" height="120" as="geometry" />
        </mxCell>
        <mxCell id="JTMz5jNMzuzobVMtBskZ-8" value="" style="group" vertex="1" connectable="0" parent="JTMz5jNMzuzobVMtBskZ-24">
          <mxGeometry x="40" width="60" height="120" as="geometry" />
        </mxCell>
        <mxCell id="JTMz5jNMzuzobVMtBskZ-7" value="" style="rounded=0;whiteSpace=wrap;html=1;rotation=-90;" vertex="1" parent="JTMz5jNMzuzobVMtBskZ-8">
          <mxGeometry x="-30" y="30" width="120" height="60" as="geometry" />
        </mxCell>
        <mxCell id="JTMz5jNMzuzobVMtBskZ-5" value="" style="triangle;whiteSpace=wrap;html=1;rotation=-90;container=0;" vertex="1" parent="JTMz5jNMzuzobVMtBskZ-8">
          <mxGeometry x="22.5" y="102.5" width="12.5" height="22.5" as="geometry" />
        </mxCell>
        <mxCell id="JTMz5jNMzuzobVMtBskZ-11" value="D" style="text;html=1;align=center;verticalAlign=middle;whiteSpace=wrap;rounded=0;" vertex="1" parent="JTMz5jNMzuzobVMtBskZ-8">
          <mxGeometry y="10" width="20" height="20" as="geometry" />
        </mxCell>
        <mxCell id="JTMz5jNMzuzobVMtBskZ-16" value="Q" style="text;html=1;align=center;verticalAlign=middle;whiteSpace=wrap;rounded=0;" vertex="1" parent="JTMz5jNMzuzobVMtBskZ-8">
          <mxGeometry x="40" y="10" width="20" height="20" as="geometry" />
        </mxCell>
        <mxCell id="JTMz5jNMzuzobVMtBskZ-23" value="EN" style="text;html=1;align=center;verticalAlign=middle;whiteSpace=wrap;rounded=0;" vertex="1" parent="JTMz5jNMzuzobVMtBskZ-8">
          <mxGeometry x="2.5" y="80" width="20" height="20" as="geometry" />
        </mxCell>
        <mxCell id="JTMz5jNMzuzobVMtBskZ-9" value="" style="endArrow=none;html=1;rounded=0;" edge="1" parent="JTMz5jNMzuzobVMtBskZ-24">
          <mxGeometry width="50" height="50" relative="1" as="geometry">
            <mxPoint y="20" as="sourcePoint" />
            <mxPoint x="40" y="20" as="targetPoint" />
          </mxGeometry>
        </mxCell>
        <mxCell id="JTMz5jNMzuzobVMtBskZ-10" value="" style="endArrow=none;html=1;rounded=0;" edge="1" parent="JTMz5jNMzuzobVMtBskZ-24">
          <mxGeometry width="50" height="50" relative="1" as="geometry">
            <mxPoint y="90" as="sourcePoint" />
            <mxPoint x="40" y="90" as="targetPoint" />
          </mxGeometry>
        </mxCell>
        <mxCell id="JTMz5jNMzuzobVMtBskZ-17" value="" style="endArrow=none;html=1;rounded=0;" edge="1" parent="JTMz5jNMzuzobVMtBskZ-24">
          <mxGeometry width="50" height="50" relative="1" as="geometry">
            <mxPoint x="100" y="20" as="sourcePoint" />
            <mxPoint x="140" y="20" as="targetPoint" />
          </mxGeometry>
        </mxCell>
        <mxCell id="JTMz5jNMzuzobVMtBskZ-25" value="" style="group" vertex="1" connectable="0" parent="1">
          <mxGeometry x="530" y="450" width="140" height="120" as="geometry" />
        </mxCell>
        <mxCell id="JTMz5jNMzuzobVMtBskZ-26" value="" style="group" vertex="1" connectable="0" parent="JTMz5jNMzuzobVMtBskZ-25">
          <mxGeometry x="40" width="60" height="120" as="geometry" />
        </mxCell>
        <mxCell id="JTMz5jNMzuzobVMtBskZ-27" value="" style="rounded=0;whiteSpace=wrap;html=1;rotation=-90;" vertex="1" parent="JTMz5jNMzuzobVMtBskZ-26">
          <mxGeometry x="-30" y="30" width="120" height="60" as="geometry" />
        </mxCell>
        <mxCell id="JTMz5jNMzuzobVMtBskZ-28" value="" style="triangle;whiteSpace=wrap;html=1;rotation=-90;container=0;" vertex="1" parent="JTMz5jNMzuzobVMtBskZ-26">
          <mxGeometry x="22.5" y="102.5" width="12.5" height="22.5" as="geometry" />
        </mxCell>
        <mxCell id="JTMz5jNMzuzobVMtBskZ-29" value="D" style="text;html=1;align=center;verticalAlign=middle;whiteSpace=wrap;rounded=0;" vertex="1" parent="JTMz5jNMzuzobVMtBskZ-26">
          <mxGeometry y="10" width="20" height="20" as="geometry" />
        </mxCell>
        <mxCell id="JTMz5jNMzuzobVMtBskZ-30" value="Q" style="text;html=1;align=center;verticalAlign=middle;whiteSpace=wrap;rounded=0;" vertex="1" parent="JTMz5jNMzuzobVMtBskZ-26">
          <mxGeometry x="40" y="10" width="20" height="20" as="geometry" />
        </mxCell>
        <mxCell id="JTMz5jNMzuzobVMtBskZ-31" value="EN" style="text;html=1;align=center;verticalAlign=middle;whiteSpace=wrap;rounded=0;" vertex="1" parent="JTMz5jNMzuzobVMtBskZ-26">
          <mxGeometry x="2.5" y="80" width="20" height="20" as="geometry" />
        </mxCell>
        <mxCell id="JTMz5jNMzuzobVMtBskZ-32" value="" style="endArrow=none;html=1;rounded=0;" edge="1" parent="JTMz5jNMzuzobVMtBskZ-25">
          <mxGeometry width="50" height="50" relative="1" as="geometry">
            <mxPoint y="20" as="sourcePoint" />
            <mxPoint x="40" y="20" as="targetPoint" />
          </mxGeometry>
        </mxCell>
        <mxCell id="JTMz5jNMzuzobVMtBskZ-33" value="" style="endArrow=none;html=1;rounded=0;" edge="1" parent="JTMz5jNMzuzobVMtBskZ-25">
          <mxGeometry width="50" height="50" relative="1" as="geometry">
            <mxPoint y="90" as="sourcePoint" />
            <mxPoint x="40" y="90" as="targetPoint" />
          </mxGeometry>
        </mxCell>
        <mxCell id="JTMz5jNMzuzobVMtBskZ-34" value="" style="endArrow=none;html=1;rounded=0;" edge="1" parent="JTMz5jNMzuzobVMtBskZ-25">
          <mxGeometry width="50" height="50" relative="1" as="geometry">
            <mxPoint x="100" y="20" as="sourcePoint" />
            <mxPoint x="140" y="20" as="targetPoint" />
          </mxGeometry>
        </mxCell>
        <mxCell id="JTMz5jNMzuzobVMtBskZ-35" value="aes_comb" style="whiteSpace=wrap;html=1;aspect=fixed;" vertex="1" parent="1">
          <mxGeometry x="390" y="450" width="120" height="120" as="geometry" />
        </mxCell>
      </root>
    </mxGraphModel>
  </diagram>
</mxfile>
